@startuml

title UML-діаграма розгортання ПП

left to right direction

skinparam componentStyle uml1

node "<<Desktop 1>>" as dk1 {
	node "<<Operating System Windows>>" {
		component [Web Brouser]
	}
}

interface Keyboard

interface Mouse

Keyboard -- dk1

Mouse -- dk1

node "<<Server 1>>" as serv1 {
	node "<<Operating System Windows>>" {
		component [Web Server]
	}
}

dk1 -- serv1

@enduml
